<mxfile host="app.diagrams.net" modified="2023-11-26T15:09:35.782Z" agent="Mozilla/5.0 (Windows NT 10.0; Win64; x64) AppleWebKit/537.36 (KHTML, like Gecko) Chrome/118.0.0.0 Safari/537.36 OPR/104.0.0.0" etag="3uJ29e4ElJuQr57f4-0x" version="22.1.4" type="device">
  <diagram name="Strona-1" id="0n_gEZxV8hw344yn2J4Z">
    <mxGraphModel dx="952" dy="511" grid="1" gridSize="10" guides="1" tooltips="1" connect="1" arrows="1" fold="1" page="1" pageScale="1" pageWidth="827" pageHeight="1169" math="0" shadow="0">
      <root>
        <mxCell id="0" />
        <mxCell id="1" parent="0" />
        <mxCell id="IMMI_qKeIYYGWv6zr42l-42" value="" style="rounded=0;whiteSpace=wrap;html=1;" vertex="1" parent="1">
          <mxGeometry x="90" y="110" width="530" height="230" as="geometry" />
        </mxCell>
        <mxCell id="IMMI_qKeIYYGWv6zr42l-1" value="" style="shape=image;verticalLabelPosition=bottom;verticalAlign=top;imageAspect=0;aspect=fixed;image=data:image/svg+xml,PHN2ZyB4bWxucz0iaHR0cDovL3d3dy53My5vcmcvMjAwMC9zdmciIGlkPSJiY2M1NzZiMS04NGExLTRlMGMtOTJiYS04MmZmYjIyYjcwNjkiIHdpZHRoPSIxOCIgaGVpZ2h0PSIxOCIgdmlld0JveD0iMCAwIDE4IDE4Ij48ZGVmcz48bGluZWFyR3JhZGllbnQgaWQ9ImI5NDY5ODY1LWQ4MzktNGRmYy1hN2Y3LWE4YTgxNTRiOTcyZCIgeDE9IjguOTEiIHkxPSIxMi4wNyIgeDI9IjguOTEiIHkyPSIwLjEyIiBncmFkaWVudFVuaXRzPSJ1c2VyU3BhY2VPblVzZSI+PHN0b3Agb2Zmc2V0PSIwIiBzdG9wLWNvbG9yPSIjMDA3OGQ0Ii8+PHN0b3Agb2Zmc2V0PSIwLjE2IiBzdG9wLWNvbG9yPSIjMTM4MGRhIi8+PHN0b3Agb2Zmc2V0PSIwLjUzIiBzdG9wLWNvbG9yPSIjM2M5MWU1Ii8+PHN0b3Agb2Zmc2V0PSIwLjgyIiBzdG9wLWNvbG9yPSIjNTU5Y2VjIi8+PHN0b3Agb2Zmc2V0PSIxIiBzdG9wLWNvbG9yPSIjNWVhMGVmIi8+PC9saW5lYXJHcmFkaWVudD48L2RlZnM+PHRpdGxlPkljb24tY29tcHV0ZS0yMjwvdGl0bGU+PHBhdGggZD0iTTE3LjM0LDguMzNhMy43OCwzLjc4LDAsMCwwLTMuMjktMy42NEE0Ljc3LDQuNzcsMCwwLDAsOS4xMy4xMiw0LjkxLDQuOTEsMCwwLDAsNC40NSwzLjMxYTQuNTMsNC41MywwLDAsMC00LDQuMzUsNC41OSw0LjU5LDAsMCwwLDQuNzUsNC40MWwuNDIsMGg3LjY4YS42NC42NCwwLDAsMCwuMiwwQTMuODQsMy44NCwwLDAsMCwxNy4zNCw4LjMzWiIgZmlsbD0idXJsKCNiOTQ2OTg2NS1kODM5LTRkZmMtYTdmNy1hOGE4MTU0Yjk3MmQpIi8+PHBhdGggZD0iTTYuMjcsNi41OCw4Ljg1LDRhLjMxLjMxLDAsMCwxLC40NCwwbDIuNTksMi41OWEuMTQuMTQsMCwwLDEtLjEuMjRIMTAuMTlhLjEzLjEzLDAsMCwwLS4xNC4xM3YzLjI0YS4xMS4xMSwwLDAsMS0uMTEuMTFIOC4yYS4xMS4xMSwwLDAsMS0uMTEtLjExVjdBLjEzLjEzLDAsMCwwLDgsNi44Mkg2LjM2QS4xNC4xNCwwLDAsMSw2LjI3LDYuNThaIiBmaWxsPSIjZjJmMmYyIi8+PHBhdGggZD0iTTEzLjg2LDExLjQ5YS4xNC4xNCwwLDAsMC0uMDktLjEzTDkuMDcsOS43N0g4Ljk0djguMzVoLjEzbDQuNzEtMS44OGEuMTMuMTMsMCwwLDAsLjA4LS4xM1oiIGZpbGw9IiNhNjdhZjQiLz48cGF0aCBkPSJNOC45MSw5LjhsLTQuNTEuODNhLjE0LjE0LDAsMCwwLS4xMi4xM1YxN2EuMTQuMTQsMCwwLDAsLjExLjE0bDQuNTIsMUEuMTQuMTQsMCwwLDAsOS4wNywxOHYtOEEuMTQuMTQsMCwwLDAsOC45MSw5LjhaIiBmaWxsPSIjNTUyZjk5Ii8+PHBvbHlnb24gcG9pbnRzPSI2LjgyIDExLjA0IDYuODIgMTYuODUgOC4zOSAxNy4xIDguMzkgMTAuNzcgNi44MiAxMS4wNCIgZmlsbD0iI2I3N2FmNCIgb3BhY2l0eT0iMC43NSIvPjxwb2x5Z29uIHBvaW50cz0iNC44OSAxMS4zNiA0Ljg5IDE2LjQ0IDYuMjYgMTYuNzIgNi4yNiAxMS4xMyA0Ljg5IDExLjM2IiBmaWxsPSIjYjc3YWY0IiBvcGFjaXR5PSIwLjc1Ii8+PC9zdmc+" vertex="1" parent="1">
          <mxGeometry x="470" y="210" width="40" height="40" as="geometry" />
        </mxCell>
        <object label="" tesat="sfdsfs" id="IMMI_qKeIYYGWv6zr42l-2">
          <mxCell style="shape=image;verticalLabelPosition=bottom;verticalAlign=top;imageAspect=0;aspect=fixed;image=data:image/svg+xml,PHN2ZyB4bWxucz0iaHR0cDovL3d3dy53My5vcmcvMjAwMC9zdmciIGlkPSJiY2M1NzZiMS04NGExLTRlMGMtOTJiYS04MmZmYjIyYjcwNjkiIHdpZHRoPSIxOCIgaGVpZ2h0PSIxOCIgdmlld0JveD0iMCAwIDE4IDE4Ij48ZGVmcz48bGluZWFyR3JhZGllbnQgaWQ9ImI5NDY5ODY1LWQ4MzktNGRmYy1hN2Y3LWE4YTgxNTRiOTcyZCIgeDE9IjguOTEiIHkxPSIxMi4wNyIgeDI9IjguOTEiIHkyPSIwLjEyIiBncmFkaWVudFVuaXRzPSJ1c2VyU3BhY2VPblVzZSI+PHN0b3Agb2Zmc2V0PSIwIiBzdG9wLWNvbG9yPSIjMDA3OGQ0Ii8+PHN0b3Agb2Zmc2V0PSIwLjE2IiBzdG9wLWNvbG9yPSIjMTM4MGRhIi8+PHN0b3Agb2Zmc2V0PSIwLjUzIiBzdG9wLWNvbG9yPSIjM2M5MWU1Ii8+PHN0b3Agb2Zmc2V0PSIwLjgyIiBzdG9wLWNvbG9yPSIjNTU5Y2VjIi8+PHN0b3Agb2Zmc2V0PSIxIiBzdG9wLWNvbG9yPSIjNWVhMGVmIi8+PC9saW5lYXJHcmFkaWVudD48L2RlZnM+PHRpdGxlPkljb24tY29tcHV0ZS0yMjwvdGl0bGU+PHBhdGggZD0iTTE3LjM0LDguMzNhMy43OCwzLjc4LDAsMCwwLTMuMjktMy42NEE0Ljc3LDQuNzcsMCwwLDAsOS4xMy4xMiw0LjkxLDQuOTEsMCwwLDAsNC40NSwzLjMxYTQuNTMsNC41MywwLDAsMC00LDQuMzUsNC41OSw0LjU5LDAsMCwwLDQuNzUsNC40MWwuNDIsMGg3LjY4YS42NC42NCwwLDAsMCwuMiwwQTMuODQsMy44NCwwLDAsMCwxNy4zNCw4LjMzWiIgZmlsbD0idXJsKCNiOTQ2OTg2NS1kODM5LTRkZmMtYTdmNy1hOGE4MTU0Yjk3MmQpIi8+PHBhdGggZD0iTTYuMjcsNi41OCw4Ljg1LDRhLjMxLjMxLDAsMCwxLC40NCwwbDIuNTksMi41OWEuMTQuMTQsMCwwLDEtLjEuMjRIMTAuMTlhLjEzLjEzLDAsMCwwLS4xNC4xM3YzLjI0YS4xMS4xMSwwLDAsMS0uMTEuMTFIOC4yYS4xMS4xMSwwLDAsMS0uMTEtLjExVjdBLjEzLjEzLDAsMCwwLDgsNi44Mkg2LjM2QS4xNC4xNCwwLDAsMSw2LjI3LDYuNThaIiBmaWxsPSIjZjJmMmYyIi8+PHBhdGggZD0iTTEzLjg2LDExLjQ5YS4xNC4xNCwwLDAsMC0uMDktLjEzTDkuMDcsOS43N0g4Ljk0djguMzVoLjEzbDQuNzEtMS44OGEuMTMuMTMsMCwwLDAsLjA4LS4xM1oiIGZpbGw9IiNhNjdhZjQiLz48cGF0aCBkPSJNOC45MSw5LjhsLTQuNTEuODNhLjE0LjE0LDAsMCwwLS4xMi4xM1YxN2EuMTQuMTQsMCwwLDAsLjExLjE0bDQuNTIsMUEuMTQuMTQsMCwwLDAsOS4wNywxOHYtOEEuMTQuMTQsMCwwLDAsOC45MSw5LjhaIiBmaWxsPSIjNTUyZjk5Ii8+PHBvbHlnb24gcG9pbnRzPSI2LjgyIDExLjA0IDYuODIgMTYuODUgOC4zOSAxNy4xIDguMzkgMTAuNzcgNi44MiAxMS4wNCIgZmlsbD0iI2I3N2FmNCIgb3BhY2l0eT0iMC43NSIvPjxwb2x5Z29uIHBvaW50cz0iNC44OSAxMS4zNiA0Ljg5IDE2LjQ0IDYuMjYgMTYuNzIgNi4yNiAxMS4xMyA0Ljg5IDExLjM2IiBmaWxsPSIjYjc3YWY0IiBvcGFjaXR5PSIwLjc1Ii8+PC9zdmc+" vertex="1" parent="1">
            <mxGeometry x="470" y="130" width="40" height="40" as="geometry" />
          </mxCell>
        </object>
        <mxCell id="IMMI_qKeIYYGWv6zr42l-3" value="" style="shape=image;verticalLabelPosition=bottom;labelBackgroundColor=default;verticalAlign=top;aspect=fixed;imageAspect=0;image=data:image/svg+xml,PHN2ZyB4bWxucz0iaHR0cDovL3d3dy53My5vcmcvMjAwMC9zdmciIHZpZXdCb3g9IjAgMCAxOCAxOCIgaGVpZ2h0PSIxOCIgd2lkdGg9IjE4Ij48ZGVmcz48bGluZWFyR3JhZGllbnQgZ3JhZGllbnRVbml0cz0idXNlclNwYWNlT25Vc2UiIHkyPSI4LjcwMyIgeDI9IjE0LjY4MyIgeTE9IjguNzAzIiB4MT0iOC43OTgiIGlkPSJiMjdmMWFkMC03ZDExLTQyNDctOWRhMy05MWJjZTYyMTFmMzIiPjxzdG9wIHN0b3AtY29sb3I9IiM3NzNhZGMiIG9mZnNldD0iMC4wMDEiLz48c3RvcCBzdG9wLWNvbG9yPSIjNTUyZjk5IiBvZmZzZXQ9IjEiLz48L2xpbmVhckdyYWRpZW50PjxsaW5lYXJHcmFkaWVudCBncmFkaWVudFVuaXRzPSJ1c2VyU3BhY2VPblVzZSIgeTI9IjEzLjc4IiB4Mj0iNS43NjQiIHkxPSIzLjc3NyIgeDE9IjUuNzY0IiBpZD0iYjJmOTIxMTItNGNhOS00YjE3LWEwMTktYzlmMjZjMWE0YThmIj48c3RvcCBzdG9wLWNvbG9yPSIjYTY3YWY0IiBvZmZzZXQ9IjAiLz48c3RvcCBzdG9wLWNvbG9yPSIjNzczYWRjIiBvZmZzZXQ9IjAuOTk5Ii8+PC9saW5lYXJHcmFkaWVudD48L2RlZnM+PGcgaWQ9ImI4YTA0ODZhLTU1MDEtNGQ5Mi1iNTQwLWE3NjZjNGIzYjU0OCI+PGc+PGc+PGc+PHBhdGggZmlsbD0iIzMyYmVkZCIgZD0iTTE2LjkzMiwxMS41NzhhOC40NDgsOC40NDgsMCwwLDEtNy45NSw1LjU5LDguMTUsOC4xNSwwLDAsMS0yLjMzLS4zMywyLjEzMywyLjEzMywwLDAsMCwuMTgtLjgzYy4wMSwwLC4wMy4wMS4wNC4wMWE3LjQyMiw3LjQyMiwwLDAsMCwyLjExLjMsNy42NDYsNy42NDYsMCwwLDAsNi44NS00LjI4bC4wMS0uMDFaIi8+PHBhdGggZmlsbD0iIzMyYmVkZCIgZD0iTTMuNTgyLDE0LjA2OGEyLjAyNSwyLjAyNSwwLDAsMC0uNjQuNTYsOC42LDguNiwwLDAsMS0xLjY3LTIuNDRsMS4wNC4yM3YuMjZhLjYuNiwwLDAsMCwuNDcuNTlsLjE0LjAzYTYuMTM2LDYuMTM2LDAsMCwwLC42Mi43M1oiLz48cGF0aCBmaWxsPSIjMzJiZWRkIiBkPSJNMTIuMzUyLjk1OGEyLjI4LDIuMjgsMCwwLDAtLjI3LjgxYy0uMDItLjAxLS4wNS0uMDItLjA3LS4wM2E3LjQ3OSw3LjQ3OSwwLDAsMC0zLjAzLS42Myw3LjY0Myw3LjY0MywwLDAsMC01LjksMi44bC0uMjkuMDZhLjYuNiwwLDAsMC0uNDguNTh2LjQ2bC0xLjAyLjE5QTguNDU0LDguNDU0LDAsMCwxLDguOTgyLjI2OCw4LjYsOC42LDAsMCwxLDEyLjM1Mi45NThaIi8+PHBhdGggZmlsbD0iIzMyYmVkZCIgZD0iTTE2Ljg3Miw1LjdsLTEuMDktLjM4YTYuNiw2LjYsMCwwLDAtLjcyLTEuMTZjLS4wMi0uMDMtLjA0LS4wNS0uMDUtLjA3YTIuMDgzLDIuMDgzLDAsMCwwLC43Mi0uNDVBNy44MSw3LjgxLDAsMCwxLDE2Ljg3Miw1LjdaIi8+PHBhdGggZmlsbD0iI2ZmZiIgZD0iTTEwLjA3MiwxMS45MDhsMi41NC41Nkw4LjY3MiwxNC4xYy0uMDIsMC0uMDMuMDEtLjA1LjAxYS4xNTQuMTU0LDAsMCwxLS4xNS0uMTVWMy40NDhhLjE1NC4xNTQsMCwwLDEsLjE1LS4xNS4wOS4wOSwwLDAsMSwuMDUuMDFsNC40NiwxLjU2LTMuMDUuNTdhLjU2NS41NjUsMCwwLDAtLjQ0LjU0djUuNEEuNTM3LjUzNywwLDAsMCwxMC4wNzIsMTEuOTA4WiIvPjxnPjxnIGlkPSJlOTE4ZjI4Ni01MDMyLTQ5NDItYWQyOS1lYTE3ZTZmMWNjOTAiPjxwYXRoIGZpbGw9IiNhNjdhZjQiIGQ9Ik0xLjEsNS42NjhsMS4yMS0uMjN2Ni41NWwtMS4yMy0uMjctLjk5LS4yMmEuMTExLjExMSwwLDAsMS0uMDktLjEydi01LjRhLjEyLjEyLDAsMCwxLC4wOS0uMTJaIi8+PC9nPjxnPjxnIGlkPSJhNDdhOTlkZC00ZDQ3LTRjNzAtOGM0Mi1jNWFjMjc0Y2U0OTYiPjxnPjxwYXRoIGZpbGw9InVybCgjYjI3ZjFhZDAtN2QxMS00MjQ3LTlkYTMtOTFiY2U2MjExZjMyKSIgZD0iTTEwLjA3MiwxMS45MDhsMi41NC41Nkw4LjY3MiwxNC4xYy0uMDIsMC0uMDMuMDEtLjA1LjAxYS4xNTQuMTU0LDAsMCwxLS4xNS0uMTVWMy40NDhhLjE1NC4xNTQsMCwwLDEsLjE1LS4xNS4wOS4wOSwwLDAsMSwuMDUuMDFsNC40NiwxLjU2LTMuMDUuNTdhLjU2NS41NjUsMCwwLDAtLjQ0LjU0djUuNEEuNTM3LjUzNywwLDAsMCwxMC4wNzIsMTEuOTA4WiIvPjxwYXRoIGZpbGw9InVybCgjYjJmOTIxMTItNGNhOS00YjE3LWEwMTktYzlmMjZjMWE0YThmKSIgZD0iTTguNTg2LDMuMywyLjg3OCw0LjM3OGEuMTc3LjE3NywwLDAsMC0uMTQuMTc1VjEyLjY4YS4xNzcuMTc3LDAsMCwwLC4xMzcuMTc0TDguNTgxLDE0LjFhLjE3Ni4xNzYsMCwwLDAsLjIxLS4xNzRWMy40NzhBLjE3NS4xNzUsMCwwLDAsOC42MTksMy4zWiIvPjwvZz48L2c+PHBvbHlnb24gb3BhY2l0eT0iMC41IiBmaWxsPSIjYjc5NmY5IiBwb2ludHM9IjUuOTQ4IDQuOTIxIDUuOTQ4IDEyLjQ4MyA3LjkzNCAxMi44MTQgNy45MzQgNC41NjQgNS45NDggNC45MjEiLz48cG9seWdvbiBvcGFjaXR5PSIwLjUiIGZpbGw9IiNiNzk2ZjkiIHBvaW50cz0iMy41MDkgNS4zMjkgMy41MDkgMTEuOTU0IDUuMjM4IDEyLjMxNyA1LjIzOCA1LjAzMSAzLjUwOSA1LjMyOSIvPjwvZz48L2c+PC9nPjxwYXRoIGZpbGw9IiMzMmJlZGQiIGQ9Ik0xNiwyLjA0OGExLjc1NSwxLjc1NSwwLDEsMS0xLjc2LTEuNzZBMS43NTYsMS43NTYsMCwwLDEsMTYsMi4wNDhaIi8+PGNpcmNsZSBmaWxsPSIjMzJiZWRkIiByPSIxLjc1OSIgY3k9IjE1Ljk3MyIgY3g9IjQuNjUiLz48L2c+PHBhdGggZmlsbD0iIzc3M2FkYyIgZD0iTTE4LDYuNjg5djMuODQ0YS4yMjIuMjIyLDAsMCwxLS4xMzMuMmwtLjc2Ni4zMTYtMy4wNywxLjI2OC0uMDExLDBhLjEyNi4xMjYsMCwwLDEtLjAzOCwwLC4xLjEsMCwwLDEtLjEtLjFWNS4yMzRhLjEuMSwwLDAsMSwuMDU0LS4wODhsMCwwLC4wMTksMGEuMDMxLjAzMSwwLDAsMSwuMDE5LDAsLjA1NS4wNTUsMCwwLDEsLjAzNC4wMDhsLjAxMSwwLC4wMTIsMEwxNy4wNSw2LjJsLjguMjgyQS4yMTMuMjEzLDAsMCwxLDE4LDYuNjg5WiIvPjxwYXRoIGZpbGw9IiNhNjdhZjQiIGQ9Ik0xMy45NTksNS4xNGwtMy44LjcxNWEuMTE4LjExOCwwLDAsMC0uMDkzLjExN3Y1LjQwOWEuMTE4LjExOCwwLDAsMCwuMDkxLjExNmwzLjguODMxYS4xMTUuMTE1LDAsMCwwLC4xMzctLjA5LjEwOS4xMDksMCwwLDAsMC0uMDI2VjUuMjU2YS4xMTcuMTE3LDAsMCwwLS4xMTUtLjExOEEuMDgyLjA4MiwwLDAsMCwxMy45NTksNS4xNFoiLz48L2c+PC9nPjwvc3ZnPg==;" vertex="1" parent="1">
          <mxGeometry x="470" y="290" width="40" height="40" as="geometry" />
        </mxCell>
        <mxCell id="IMMI_qKeIYYGWv6zr42l-6" style="edgeStyle=orthogonalEdgeStyle;rounded=0;orthogonalLoop=1;jettySize=auto;html=1;" edge="1" parent="1" source="IMMI_qKeIYYGWv6zr42l-4" target="IMMI_qKeIYYGWv6zr42l-1">
          <mxGeometry relative="1" as="geometry" />
        </mxCell>
        <mxCell id="IMMI_qKeIYYGWv6zr42l-7" style="edgeStyle=orthogonalEdgeStyle;rounded=0;orthogonalLoop=1;jettySize=auto;html=1;" edge="1" parent="1" source="IMMI_qKeIYYGWv6zr42l-4" target="IMMI_qKeIYYGWv6zr42l-3">
          <mxGeometry relative="1" as="geometry">
            <Array as="points">
              <mxPoint x="340" y="310" />
            </Array>
          </mxGeometry>
        </mxCell>
        <mxCell id="IMMI_qKeIYYGWv6zr42l-11" style="edgeStyle=orthogonalEdgeStyle;rounded=0;orthogonalLoop=1;jettySize=auto;html=1;entryX=0;entryY=0.5;entryDx=0;entryDy=0;" edge="1" parent="1" source="IMMI_qKeIYYGWv6zr42l-4" target="IMMI_qKeIYYGWv6zr42l-2">
          <mxGeometry relative="1" as="geometry">
            <Array as="points">
              <mxPoint x="340" y="150" />
            </Array>
          </mxGeometry>
        </mxCell>
        <mxCell id="IMMI_qKeIYYGWv6zr42l-4" value="" style="shape=image;verticalLabelPosition=bottom;verticalAlign=top;imageAspect=0;aspect=fixed;image=data:image/svg+xml,PHN2ZyB4bWxucz0iaHR0cDovL3d3dy53My5vcmcvMjAwMC9zdmciIGlkPSJlOGVlODllNy01NDk3LTQzYWYtODIzNy0wN2RhNTZiMDU5NGMiIHdpZHRoPSIxOCIgaGVpZ2h0PSIxOCIgdmlld0JveD0iMCAwIDE4IDE4Ij48ZGVmcz48bGluZWFyR3JhZGllbnQgaWQ9ImFjZjg0MTlkLThiZDMtNGQ0Yy1hMzEzLTc5YmZhNGRiYmIzMCIgeDE9IjguNjciIHkxPSIxNy41NCIgeDI9IjguNjciIHkyPSItMS4xOSIgZ3JhZGllbnRVbml0cz0idXNlclNwYWNlT25Vc2UiPjxzdG9wIG9mZnNldD0iMCIgc3RvcC1jb2xvcj0iIzAwNzhkNCIvPjxzdG9wIG9mZnNldD0iMC4xNiIgc3RvcC1jb2xvcj0iIzEzODBkYSIvPjxzdG9wIG9mZnNldD0iMC41MyIgc3RvcC1jb2xvcj0iIzNjOTFlNSIvPjxzdG9wIG9mZnNldD0iMC44MiIgc3RvcC1jb2xvcj0iIzU1OWNlYyIvPjxzdG9wIG9mZnNldD0iMSIgc3RvcC1jb2xvcj0iIzVlYTBlZiIvPjwvbGluZWFyR3JhZGllbnQ+PGxpbmVhckdyYWRpZW50IGlkPSJiNzBiNDM3NC0zZmVlLTRmM2EtYTJhMS04ZjQ0ODQ4MDdiMDEiIHgxPSIxMi45NiIgeTE9IjEwLjUiIHgyPSIxMi45NiIgeTI9IjEyLjkyIiBncmFkaWVudFVuaXRzPSJ1c2VyU3BhY2VPblVzZSI+PHN0b3Agb2Zmc2V0PSIwIiBzdG9wLWNvbG9yPSIjMzMzMTMyIi8+PHN0b3Agb2Zmc2V0PSIxIiBzdG9wLWNvbG9yPSIjNWI1YTVjIi8+PC9saW5lYXJHcmFkaWVudD48L2RlZnM+PHRpdGxlPkljb24tY29udGFpbmVycy0xMDU8L3RpdGxlPjxwYXRoIGQ9Ik0xNi4yMiw3LjQ0QTQuMTksNC4xOSwwLDAsMCwxNCw2LjMyLDQuOTEsNC45MSwwLDAsMCw4LjksMS42Miw1LjA3LDUuMDcsMCwwLDAsNC4wNiw0LjkxLDQuNjIsNC42MiwwLDAsMCwwLDkuMzlhNC43Myw0LjczLDAsMCwwLDQuODksNC41NGwuNDMsMGg3LjkybC4yMSwwYTQsNCwwLDAsMCwzLjkyLTMuODEsMy42NywzLjY3LDAsMCwwLTEuMTQtMi42MyIgZmlsbD0idXJsKCNhY2Y4NDE5ZC04YmQzLTRkNGMtYTMxMy03OWJmYTRkYmJiMzApIi8+PHBvbHlnb24gcG9pbnRzPSIxMC4wNyA2LjIyIDEwLjA4IDEwLjUgMTcuOTkgMTIuMTggMTcuOTkgOS4yIDEwLjA3IDYuMjIiIGZpbGw9IiM3Njc2NzYiLz48cG9seWxpbmUgcG9pbnRzPSIxMC4wNyA2LjIyIDcuOTMgNy41MiA3LjkzIDExLjUgMTAuMDggMTAuNSIgZmlsbD0iIzk5OSIvPjxwb2x5Z29uIHBvaW50cz0iMTMuNjggMTAuNTYgMTQuNCAxMC43NiAxNC40IDguNDMgMTMuNjggOC4xOCAxMy42OCAxMC41NiIgZmlsbD0iI2EzYTNhMyIvPjxwb2x5Z29uIHBvaW50cz0iMTIuOTYgNy45NSAxMi4yNCA3LjY5IDEyLjI0IDEwLjE4IDEyLjk2IDEwLjM4IDEyLjk2IDcuOTUiIGZpbGw9IiNhM2EzYTMiLz48cG9seWdvbiBwb2ludHM9IjE1LjEyIDEwLjk1IDE1LjgyIDExLjE0IDE1Ljg0IDguOTIgMTUuMTIgOC42OCAxNS4xMiAxMC45NSIgZmlsbD0iI2EzYTNhMyIvPjxwb2x5Z29uIHBvaW50cz0iMTAuODEgOS44MSAxMS41MyA5Ljk5IDExLjUzIDcuNDYgMTAuODEgNy4yMiAxMC44MSA5LjgxIiBmaWxsPSIjYTNhM2EzIi8+PHBvbHlnb24gcG9pbnRzPSIxNy4yNyA5LjQxIDE2LjU1IDkuMTYgMTYuNTUgMTEuMzMgMTcuMjcgMTEuNTMgMTcuMjcgOS40MSIgZmlsbD0iI2EzYTNhMyIvPjxwYXRoIGlkPSJhODcxOTg4Ni04ZWNiLTRiYjEtYWJhZi1kNWQzODA4YjIwOTEiIGQ9Ik04LjY2LDEwLjQzbC0uMzYuMjFWNy44MWwuMzYtLjE5Wm0uNzEtMy4yMkw5LDcuNDVWMTAuMkw5LjM3LDEwWiIgZmlsbD0iI2IzYjNiMyIvPjxwb2x5Z29uIHBvaW50cz0iMTcuOTkgMTIuMTggMTUuODMgMTIuOTIgNy45MyAxMS41IDEwLjA4IDEwLjUgMTcuOTkgMTIuMTgiIGZpbGw9InVybCgjYjcwYjQzNzQtM2ZlZS00ZjNhLWEyYTEtOGY0NDg0ODA3YjAxKSIvPjxwb2x5Z29uIHBvaW50cz0iMTcuOTkgMTUuMjMgMTAuMDQgMTYuNzQgMTAuMDggMTEuMTUgMTcuOTkgMTIuNjIgMTcuOTkgMTUuMjMiIGZpbGw9IiM3Njc2NzYiLz48cG9seWdvbiBwb2ludHM9IjEwLjgxIDE1LjgyIDEwLjgxIDEyLjI3IDExLjUzIDEyLjM2IDExLjUzIDE1LjcgMTAuODEgMTUuODIiIGZpbGw9IiNhM2EzYTMiLz48cG9seWdvbiBwb2ludHM9IjEyLjk2IDE1LjQ2IDEyLjI0IDE1LjU5IDEyLjI0IDEyLjQ1IDEyLjk2IDEyLjU2IDEyLjk2IDE1LjQ2IDEyLjk2IDE1LjQ2IiBmaWxsPSIjYTNhM2EzIi8+PHBvbHlnb24gcG9pbnRzPSIxMy42OCAxNS4zNSAxMy42OCAxMi42MyAxNC40IDEyLjcyIDE0LjQgMTUuMjIgMTMuNjggMTUuMzUiIGZpbGw9IiNhM2EzYTMiLz48cG9seWdvbiBwb2ludHM9IjE1LjgzIDE0Ljk3IDE1LjEyIDE1LjEgMTUuMTIgMTIuODEgMTUuODMgMTIuOTIgMTUuODMgMTQuOTciIGZpbGw9IiNhM2EzYTMiLz48cG9seWdvbiBwb2ludHM9IjE3LjI5IDE0Ljc0IDE2LjU1IDE0Ljg3IDE2LjU1IDEyLjk5IDE3LjI0IDEzLjA4IDE3LjI5IDE0Ljc0IiBmaWxsPSIjYTNhM2EzIi8+PHBhdGggaWQ9ImI4YTRjOTg4LTYyNDEtNGJkYy1iZGRmLWMyMDYzNGMzZWJlMSIgZD0iTTcuOTMsMTUuNDZWMTIuMmwyLjE2LTF2NS42WiIgZmlsbD0iIzk5OSIvPjxwYXRoIGlkPSJiNjIzYmNkOS0xMzk2LTQ4MDctODBiNy02NGQwZmM4ODQ4YzAiIGQ9Ik04LjYxLDE1LjQ1bC0uMzItLjE2VjEyLjUzbC4zMi0uMTVaTTkuMzgsMTIsOSwxMi4xOWwwLDMuNDguMzcuMTlWMTJaIiBmaWxsPSIjYjNiM2IzIi8+PC9zdmc+" vertex="1" parent="1">
          <mxGeometry x="320" y="210" width="40" height="40" as="geometry" />
        </mxCell>
        <mxCell id="IMMI_qKeIYYGWv6zr42l-12" value="Dev environment" style="text;html=1;strokeColor=none;fillColor=none;align=center;verticalAlign=middle;whiteSpace=wrap;rounded=0;" vertex="1" parent="1">
          <mxGeometry x="520" y="135" width="70" height="30" as="geometry" />
        </mxCell>
        <mxCell id="IMMI_qKeIYYGWv6zr42l-13" value="Test environment" style="text;html=1;strokeColor=none;fillColor=none;align=center;verticalAlign=middle;whiteSpace=wrap;rounded=0;" vertex="1" parent="1">
          <mxGeometry x="520" y="215" width="70" height="25" as="geometry" />
        </mxCell>
        <mxCell id="IMMI_qKeIYYGWv6zr42l-14" value="Production environment" style="text;html=1;strokeColor=none;fillColor=none;align=center;verticalAlign=middle;whiteSpace=wrap;rounded=0;" vertex="1" parent="1">
          <mxGeometry x="520" y="297.5" width="70" height="25" as="geometry" />
        </mxCell>
        <mxCell id="IMMI_qKeIYYGWv6zr42l-15" value="Trigger: git tag" style="text;strokeColor=none;fillColor=none;align=left;verticalAlign=middle;spacingLeft=4;spacingRight=4;overflow=hidden;points=[[0,0.5],[1,0.5]];portConstraint=eastwest;rotatable=0;whiteSpace=wrap;html=1;" vertex="1" parent="1">
          <mxGeometry x="350" y="120" width="100" height="30" as="geometry" />
        </mxCell>
        <mxCell id="IMMI_qKeIYYGWv6zr42l-16" value="Trigger: manually from GH Actions" style="text;strokeColor=none;fillColor=none;align=left;verticalAlign=middle;spacingLeft=4;spacingRight=4;overflow=hidden;points=[[0,0.5],[1,0.5]];portConstraint=eastwest;rotatable=0;whiteSpace=wrap;html=1;" vertex="1" parent="1">
          <mxGeometry x="360" y="190" width="120" height="30" as="geometry" />
        </mxCell>
        <mxCell id="IMMI_qKeIYYGWv6zr42l-17" value="Trigger: manually from GH Actions" style="text;strokeColor=none;fillColor=none;align=left;verticalAlign=middle;spacingLeft=4;spacingRight=4;overflow=hidden;points=[[0,0.5],[1,0.5]];portConstraint=eastwest;rotatable=0;whiteSpace=wrap;html=1;" vertex="1" parent="1">
          <mxGeometry x="360" y="270" width="120" height="30" as="geometry" />
        </mxCell>
        <mxCell id="IMMI_qKeIYYGWv6zr42l-34" value="" style="shape=image;verticalLabelPosition=bottom;verticalAlign=top;imageAspect=0;aspect=fixed;image=data:image/svg+xml,PHN2ZyB4bWxucz0iaHR0cDovL3d3dy53My5vcmcvMjAwMC9zdmciIGhlaWdodD0iMzAiIHdpZHRoPSIzMCIgdmlld0JveD0iMCAwIDMwIDMwIj4mI3hhOyAgICA8cGF0aCBmaWxsPSIjREQ1OTAwIiBkPSJNMjkuNSAxMy43TDE2LjMuNWMtLjctLjctMS45LS43LTIuNiAwbC0yLjggMi44IDMuNCAzLjRjLjMtLjEuNS0uMi44LS4yIDEuMyAwIDIuMyAxIDIuMyAyLjMgMCAuMyAwIC42LS4xLjhsMy4zIDMuM2MuMy0uMS41LS4yLjgtLjIgMS4zIDAgMi4zIDEgMi4zIDIuMyAwIDEuMy0xIDIuMy0yLjMgMi4zLTEuMyAwLTIuMy0xLTIuMy0yLjMgMC0uMy4xLS42LjItLjhsLTMuMS0zLjF2OC4yYy44LjQgMS4zIDEuMiAxLjMgMiAwIDEuMy0xIDIuMy0yLjMgMi4zLTEuMyAwLTIuMy0xLTIuMy0yLjMgMC0xIC42LTEuOCAxLjUtMi4xVjExYy0uOS0uMy0xLjUtMS4yLTEuNS0yLjEgMC0uMy4xLS42LjItLjhMOS42IDQuN2wtOSA5Yy0uNy43LS43IDEuOSAwIDIuNmwxMy4xIDEzLjFjLjcuNyAxLjkuNyAyLjYgMGwxMy4xLTEzLjFjLjgtLjcuOC0xLjkuMS0yLjZ6Ii8+JiN4YTs8L3N2Zz4=" vertex="1" parent="1">
          <mxGeometry x="100" y="215" width="30" height="30" as="geometry" />
        </mxCell>
        <mxCell id="IMMI_qKeIYYGWv6zr42l-39" style="edgeStyle=orthogonalEdgeStyle;rounded=0;orthogonalLoop=1;jettySize=auto;html=1;entryX=0;entryY=0.5;entryDx=0;entryDy=0;" edge="1" parent="1" source="IMMI_qKeIYYGWv6zr42l-38" target="IMMI_qKeIYYGWv6zr42l-4">
          <mxGeometry relative="1" as="geometry" />
        </mxCell>
        <mxCell id="IMMI_qKeIYYGWv6zr42l-38" value="" style="verticalLabelPosition=bottom;html=1;verticalAlign=top;align=center;strokeColor=none;fillColor=#00BEF2;shape=mxgraph.azure.github_code;pointerEvents=1;" vertex="1" parent="1">
          <mxGeometry x="200" y="205" width="50" height="50" as="geometry" />
        </mxCell>
        <mxCell id="IMMI_qKeIYYGWv6zr42l-40" style="edgeStyle=orthogonalEdgeStyle;rounded=0;orthogonalLoop=1;jettySize=auto;html=1;entryX=0;entryY=0.5;entryDx=0;entryDy=0;entryPerimeter=0;" edge="1" parent="1" source="IMMI_qKeIYYGWv6zr42l-34" target="IMMI_qKeIYYGWv6zr42l-38">
          <mxGeometry relative="1" as="geometry" />
        </mxCell>
        <mxCell id="IMMI_qKeIYYGWv6zr42l-41" value="GitHub Actions" style="text;html=1;strokeColor=none;fillColor=none;align=center;verticalAlign=middle;whiteSpace=wrap;rounded=0;" vertex="1" parent="1">
          <mxGeometry x="180" y="170" width="90" height="30" as="geometry" />
        </mxCell>
        <mxCell id="IMMI_qKeIYYGWv6zr42l-43" value="" style="shape=image;verticalLabelPosition=bottom;verticalAlign=top;imageAspect=0;aspect=fixed;image=data:image/svg+xml,PHN2ZyB4bWxucz0iaHR0cDovL3d3dy53My5vcmcvMjAwMC9zdmciIGlkPSJhNjg1Y2M4Yy0zMmJhLTRkNTQtOTFkYS0zYTEyNWNiNThkZWQiIHdpZHRoPSIxOCIgaGVpZ2h0PSIxOCIgdmlld0JveD0iMCAwIDE4IDE4Ij4mI3hhOyAgPHRpdGxlPkljb24tZ2VuZXJhbC03PC90aXRsZT4mI3hhOyAgPGc+JiN4YTsgICAgPGc+JiN4YTsgICAgICA8cGF0aCBkPSJNLjUsMTUuMDhhLjE2LjE2LDAsMCwwLC4wOC4xNGwxLjE2LjY1TDMuNywxN2EuMTcuMTcsMCwwLDAsLjIzLS4wNmwuNjYtMS4xMmEuMTYuMTYsMCwwLDAtLjA2LS4yMWwtMi4zLTEuM2EuMTcuMTcsMCwwLDEtLjA4LS4xNFYzLjg1YS4xNi4xNiwwLDAsMSwuMDgtLjE0bDIuMy0xLjNhLjE2LjE2LDAsMCwwLC4wNi0uMjFMMy45MywxLjA4QS4xNy4xNywwLDAsMCwzLjcsMUwxLjc4LDIuMTFsLTEuMi42N2EuMTYuMTYsMCwwLDAtLjA4LjE0VjE1LjA4WiIgZmlsbD0iIzk0OTQ5NCIvPiYjeGE7ICAgICAgPHBhdGggZD0iTTIuMTQsMy43N2wuMDYtLjA2LDIuMy0xLjNhLjE0LjE0LDAsMCwwLC4wNi0uMjFMMy45LDEuMDhBLjE1LjE1LDAsMCwwLDMuNjgsMUwxLjc1LDIuMTEuNTYsMi43OHMtLjA1LDAtLjA2LjA2bC45LjUxWiIgZmlsbD0iI2EzYTNhMyIvPiYjeGE7ICAgICAgPHBhdGggZD0iTTQuNSwxNS41OWwtMi4zLTEuM2EuMjIuMjIsMCwwLDEtLjA3LS4wOWwtMS42MiwxLC4wNSwwLDEuMTUuNjUsMiwxLjExYS4xNS4xNSwwLDAsMCwuMjItLjA2bC42Ni0xLjEyQS4xNC4xNCwwLDAsMCw0LjUsMTUuNTlaIiBmaWxsPSIjYTNhM2EzIi8+JiN4YTsgICAgPC9nPiYjeGE7ICAgIDxwYXRoIGQ9Ik0xNy41LDE1LjA4YS4xNi4xNiwwLDAsMS0uMDguMTRsLTEuMTYuNjVMMTQuMywxN2EuMTcuMTcsMCwwLDEtLjIzLS4wNmwtLjY2LTEuMTJhLjE2LjE2LDAsMCwxLC4wNi0uMjFsMi4zLTEuM2EuMTcuMTcsMCwwLDAsLjA4LS4xNFYzLjg1YS4xNi4xNiwwLDAsMC0uMDgtLjE0bC0yLjMtMS4zYS4xNi4xNiwwLDAsMS0uMDYtLjIxbC42Ni0xLjEyQS4xNy4xNywwLDAsMSwxNC4zLDFsMS45MiwxLjA5LDEuMi42N2EuMTYuMTYsMCwwLDEsLjA4LjE0VjE1LjA4WiIgZmlsbD0iIzk0OTQ5NCIvPiYjeGE7ICAgIDxwYXRoIGQ9Ik0xNS44NiwzLjc3bC0uMDYtLjA2LTIuMy0xLjNhLjE0LjE0LDAsMCwxLS4wNi0uMjFsLjY2LTEuMTJBLjE1LjE1LDAsMCwxLDE0LjMyLDFsMS45MywxLjA5LDEuMTkuNjdzMCwwLC4wNi4wNmwtLjkuNTFaIiBmaWxsPSIjYTNhM2EzIi8+JiN4YTsgICAgPHBhdGggZD0iTTEzLjUsMTUuNTlsMi4zLTEuM2EuMjIuMjIsMCwwLDAsLjA3LS4wOWwxLjYyLDEsMCwwLTEuMTUuNjUtMiwxLjExYS4xNS4xNSwwLDAsMS0uMjItLjA2bC0uNjYtMS4xMkEuMTQuMTQsMCwwLDEsMTMuNSwxNS41OVoiIGZpbGw9IiNhM2EzYTMiLz4mI3hhOyAgICA8cG9seWdvbiBwb2ludHM9IjE0LjMxIDUuOTMgMTQuMzEgMTIuMDcgOC45OSAxNS4xNiA4Ljk5IDkuMDEgMTQuMzEgNS45MyIgZmlsbD0iIzMyYmVkZCIvPiYjeGE7ICAgIDxwb2x5Z29uIHBvaW50cz0iMTQuMzEgNS45MyA5IDkuMDIgMy42OCA1LjkzIDkgMi44NCAxNC4zMSA1LjkzIiBmaWxsPSIjOWNlYmZmIi8+JiN4YTsgICAgPHBvbHlnb24gcG9pbnRzPSI4Ljk5IDkuMDIgOC45OSAxNS4xNiAzLjY4IDEyLjA3IDMuNjggNS45MyA4Ljk5IDkuMDIiIGZpbGw9IiM1MGU2ZmYiLz4mI3hhOyAgICA8cG9seWdvbiBwb2ludHM9IjMuNjggMTIuMDcgOC45OSA5LjAxIDguOTkgMTUuMTYgMy42OCAxMi4wNyIgZmlsbD0iIzljZWJmZiIvPiYjeGE7ICAgIDxwb2x5Z29uIHBvaW50cz0iMTQuMzEgMTIuMDcgOC45OSA5LjAxIDguOTkgMTUuMTYgMTQuMzEgMTIuMDciIGZpbGw9IiM1MGU2ZmYiLz4mI3hhOyAgPC9nPiYjeGE7PC9zdmc+" vertex="1" parent="1">
          <mxGeometry x="90" y="60" width="40" height="40" as="geometry" />
        </mxCell>
        <mxCell id="IMMI_qKeIYYGWv6zr42l-44" value="rg-Dadjokes-ne" style="text;html=1;strokeColor=none;fillColor=none;align=center;verticalAlign=middle;whiteSpace=wrap;rounded=0;" vertex="1" parent="1">
          <mxGeometry x="140" y="65" width="100" height="30" as="geometry" />
        </mxCell>
      </root>
    </mxGraphModel>
  </diagram>
</mxfile>
